<svg width="222" height="216" viewBox="0 0 222 216" fill="none" xmlns="http://www.w3.org/2000/svg">
<path d="M186 55.9079C186 55.1323 185.325 54.4985 184.5 54.4985C183.675 54.4985 183 55.1323 183 55.9079C183 56.6835 183.675 57.3174 184.5 57.3174C185.325 57.3174 186 56.6835 186 55.9079Z" fill="#FFC007"/>
<path d="M39 93.4934C39 92.7178 38.3254 92.0839 37.5 92.0839C36.6746 92.0839 36 92.7178 36 93.4934C36 94.269 36.6746 94.9028 37.5 94.9028C38.3254 94.9028 39 94.2773 39 93.4934Z" fill="#19AEF8"/>
<path d="M45 101.01C45 100.235 44.1006 99.601 43 99.601C41.8994 99.601 41 100.235 41 101.01C41 101.786 41.8994 102.42 43 102.42C44.1006 102.42 45 101.794 45 101.01Z" fill="#19AEF8"/>
<path d="M184 129.199C184 128.424 183.325 127.79 182.5 127.79C181.675 127.79 181 128.424 181 129.199C181 129.975 181.675 130.609 182.5 130.609C183.325 130.609 184 129.983 184 129.199Z" fill="#FB0835"/>
<path d="M207 38.0549C207 37.2793 206.325 36.6455 205.5 36.6455C204.675 36.6455 204 37.2793 204 38.0549C204 38.8305 204.675 39.4644 205.5 39.4644C206.325 39.4644 207 38.8305 207 38.0549Z" fill="#FF68E3"/>
<path d="M58 168.664C58 167.888 57.3254 167.254 56.5 167.254C55.6746 167.254 55 167.888 55 168.664C55 169.439 55.6746 170.073 56.5 170.073C57.3254 170.073 58 169.439 58 168.664Z" fill="#FF68E3"/>
<path d="M217 81.7482C217 80.714 216.325 79.8689 215.5 79.8689C214.675 79.8689 214 80.714 214 81.7482C214 82.7823 214.675 83.6274 215.5 83.6274C216.325 83.6274 217 82.7823 217 81.7482Z" fill="#00E407"/>
<path d="M217 92.5539C217 91.7783 216.101 91.1445 215 91.1445C213.899 91.1445 213 91.7783 213 92.5539C213 93.3295 213.899 93.9634 215 93.9634C216.101 93.9634 217 93.3379 217 92.5539Z" fill="#00E407"/>
<path d="M51 69.5328C51 68.4987 50.3254 67.6536 49.5 67.6536C48.6746 67.6536 48 68.4987 48 69.5328C48 70.567 48.6746 71.4121 49.5 71.4121C50.3343 71.4121 51 70.5781 51 69.5328Z" fill="#00E407"/>
<path d="M9 69.0627C9 68.2871 8.10059 67.6533 7 67.6533C5.89941 67.6533 5 68.2871 5 69.0627C5 69.8383 5.89941 70.4722 7 70.4722C8.10059 70.4722 9 69.8383 9 69.0627Z" fill="#FB0835"/>
<path d="M105 140.475C105 139.699 104.101 139.065 103 139.065C101.899 139.065 101 139.699 101 140.475C101 141.25 101.899 141.884 103 141.884C104.101 141.884 105 141.259 105 140.475Z" fill="#FF68E3"/>
<path d="M188 85.0368C188 84.2612 187.325 83.6274 186.5 83.6274C185.675 83.6274 185 84.2612 185 85.0368C185 85.8125 185.675 86.4463 186.5 86.4463C187.325 86.4463 188 85.8208 188 85.0368Z" fill="#FF68E3"/>
<path d="M208 201.551C208 200.775 207.101 200.142 206 200.142C204.899 200.142 204 200.775 204 201.551C204 202.327 204.899 202.96 206 202.96C207.101 202.96 208 202.327 208 201.551Z" fill="#00E407"/>
<path d="M221 213.766C221 212.991 220.325 212.357 219.5 212.357C218.675 212.357 218 212.991 218 213.766C218 214.542 218.675 215.176 219.5 215.176C220.325 215.176 221 214.542 221 213.766Z" fill="#00E407"/>
<path d="M38 131.079C38 130.303 37.3254 129.669 36.5 129.669C35.6746 129.669 35 130.303 35 131.079C35 131.854 35.6746 132.488 36.5 132.488C37.3254 132.488 38 131.854 38 131.079Z" fill="#FFC007"/>
<path d="M122 29.1286C122 28.0944 121.101 27.2493 120 27.2493C118.899 27.2493 118 28.0944 118 29.1286C118 30.1627 118.899 31.0078 120 31.0078C121.101 31.0078 122 30.1738 122 29.1286Z" fill="#FFC007"/>
<path d="M199 168.664C199 167.888 198.325 167.254 197.5 167.254C196.675 167.254 196 167.888 196 168.664C196 169.439 196.675 170.073 197.5 170.073C198.325 170.073 199 169.448 199 168.664Z" fill="#19AEF8"/>
<path d="M168 67.1838C168 66.4082 167.325 65.7744 166.5 65.7744C165.675 65.7744 165 66.4082 165 67.1838C165 67.9594 165.675 68.5933 166.5 68.5933C167.325 68.5933 168 67.9594 168 67.1838Z" fill="#FF68E3"/>
<path d="M25 82.218C25 81.4424 24.1006 80.8085 23 80.8085C21.8994 80.8085 21 81.4424 21 82.218C21 82.9936 21.8994 83.6274 23 83.6274C24.1006 83.6191 25 82.9936 25 82.218Z" fill="#FF68E3"/>
<path d="M62 142.354C62 141.579 61.3254 140.945 60.5 140.945C59.6746 140.945 59 141.579 59 142.354C59 143.13 59.6746 143.764 60.5 143.764C61.3254 143.764 62 143.138 62 142.354Z" fill="#FFC007"/>
<path d="M34 46.9816C34 45.9474 33.1006 45.1023 32 45.1023C30.8994 45.1023 30 45.9474 30 46.9816C30 48.0157 30.8994 48.8608 32 48.8608C33.1124 48.8608 34 48.0157 34 46.9816Z" fill="#FFC007"/>
<path d="M10 30.5378C10 29.7622 9.10059 29.1284 8 29.1284C6.89941 29.1284 6 29.7622 6 30.5378C6 31.3134 6.89941 31.9473 8 31.9473C9.10059 31.9473 10 31.3134 10 30.5378Z" fill="#FF68E3"/>
<path d="M127 91.614C127 90.8384 126.325 90.2045 125.5 90.2045C124.675 90.2045 124 90.8384 124 91.614C124 92.3896 124.675 93.0234 125.5 93.0234C126.325 93.0234 127 92.3896 127 91.614Z" fill="#FF68E3"/>
<path d="M77 183.698C77 182.922 76.1006 182.289 75 182.289C73.8994 182.289 73 182.922 73 183.698C73 184.474 73.8994 185.107 75 185.107C76.1006 185.107 77 184.482 77 183.698Z" fill="#FB0835"/>
<path d="M22 54.4987C22 53.4645 21.3254 52.6194 20.5 52.6194C19.6746 52.6194 19 53.4645 19 54.4987C19 55.5328 19.6746 56.3779 20.5 56.3779C21.3254 56.3779 22 55.5328 22 54.4987Z" fill="#19AEF8"/>
<path d="M11 118.864C11 118.088 10.3254 117.454 9.5 117.454C8.67456 117.454 8 118.088 8 118.864C8 119.639 8.67456 120.273 9.5 120.273C10.3254 120.273 11 119.639 11 118.864Z" fill="#00E407"/>
<path d="M216 114.635C216 113.601 215.325 112.756 214.5 112.756C213.675 112.756 213 113.601 213 114.635C213 115.669 213.675 116.514 214.5 116.514C215.325 116.514 216 115.68 216 114.635Z" fill="#FFC007"/>
<path d="M93 70.0027C93 69.227 92.3255 68.5932 91.5 68.5932C90.6746 68.5932 90 69.227 90 70.0027C90 70.7783 90.6746 71.4121 91.5 71.4121C92.3343 71.4121 93 70.7866 93 70.0027Z" fill="#00E407"/>
<path d="M22 147.052C22 146.277 21.3254 145.643 20.5 145.643C19.6746 145.643 19 146.277 19 147.052C19 147.828 19.6746 148.462 20.5 148.462C21.3343 148.462 22 147.836 22 147.052Z" fill="#00E407"/>
<path d="M151 200.612C151 199.836 150.325 199.202 149.5 199.202C148.675 199.202 148 199.836 148 200.612C148 201.387 148.675 202.021 149.5 202.021C150.325 202.021 151 201.387 151 200.612Z" fill="#00E407"/>
<path d="M9 100.541C9 99.5065 8.32545 98.6614 7.50001 98.6614C6.67456 98.6614 6 99.5065 6 100.541C6 101.575 6.67456 102.42 7.50001 102.42C8.32545 102.42 9 101.586 9 100.541Z" fill="#FB0835"/>
<path d="M26 199.672C26 198.896 25.3254 198.262 24.5 198.262C23.6746 198.262 23 198.896 23 199.672C23 200.447 23.6746 201.081 24.5 201.081C25.3343 201.081 26 200.447 26 199.672Z" fill="#FF68E3"/>
<path d="M146 35.2361C146 34.4604 145.325 33.8266 144.5 33.8266C143.675 33.8266 143 34.4604 143 35.2361C143 36.0117 143.675 36.6455 144.5 36.6455C145.325 36.6455 146 36.0117 146 35.2361Z" fill="#FFC007"/>
<path d="M217 147.522C217 146.488 216.325 145.643 215.5 145.643C214.675 145.643 214 146.488 214 147.522C214 148.556 214.675 149.401 215.5 149.401C216.325 149.401 217 148.556 217 147.522Z" fill="#FF68E3"/>
<path d="M114 168.664C114 167.888 113.101 167.254 112 167.254C110.899 167.254 110 167.888 110 168.664C110 169.439 110.899 170.073 112 170.073C113.101 170.073 114 169.448 114 168.664Z" fill="#FB0835"/>
<path d="M154 69.0627C154 68.2871 153.325 67.6533 152.5 67.6533C151.675 67.6533 151 68.2871 151 69.0627C151 69.8383 151.675 70.4722 152.5 70.4722C153.325 70.4722 154 69.8383 154 69.0627Z" fill="#FFC007"/>
<path d="M182 39.4645C182 38.4303 181.325 37.5852 180.5 37.5852C179.675 37.5852 179 38.4303 179 39.4645C179 40.4986 179.675 41.3438 180.5 41.3438C181.325 41.3438 182 40.5098 182 39.4645Z" fill="#FB0835"/>
<path d="M180 101.95C180 101.174 179.101 100.54 178 100.54C176.899 100.54 176 101.174 176 101.95C176 102.726 176.899 103.359 178 103.359C179.101 103.359 180 102.726 180 101.95Z" fill="#FF68E3"/>
<path d="M8 162.556C8 161.522 7.10059 160.677 5.99999 160.677C4.8994 160.677 4 161.522 4 162.556C4 163.59 4.8994 164.436 5.99999 164.436C7.11242 164.436 8 163.602 8 162.556Z" fill="#19AEF8"/>
<path d="M164 46.0421C164 45.008 163.101 44.1629 162 44.1629C160.899 44.1629 160 45.008 160 46.0421C160 47.0763 160.899 47.9214 162 47.9214C163.112 47.9214 164 47.0763 164 46.0421Z" fill="#00E407"/>
<path d="M207 85.0368C207 84.2612 206.325 83.6274 205.5 83.6274C204.675 83.6274 204 84.2612 204 85.0368C204 85.8125 204.675 86.4463 205.5 86.4463C206.325 86.4463 207 85.8208 207 85.0368Z" fill="#FF68E3"/>
<path d="M103 27.719C103 26.9434 102.325 26.3095 101.5 26.3095C100.675 26.3095 100 26.9434 100 27.719C100 28.4946 100.675 29.1284 101.5 29.1284C102.325 29.1284 103 28.4946 103 27.719Z" fill="#19AEF8"/>
<path d="M133 150.811C133 150.035 132.101 149.401 131 149.401C129.899 149.401 129 150.035 129 150.811C129 151.586 129.899 152.22 131 152.22C132.112 152.22 133 151.595 133 150.811Z" fill="#FFC007"/>
<path d="M153 151.751C153 150.975 152.325 150.341 151.5 150.341C150.675 150.341 150 150.975 150 151.751C150 152.526 150.675 153.16 151.5 153.16C152.325 153.16 153 152.526 153 151.751Z" fill="#19AEF8"/>
<path d="M109 193.094C109 192.319 108.325 191.685 107.5 191.685C106.675 191.685 106 192.319 106 193.094C106 193.87 106.675 194.504 107.5 194.504C108.325 194.504 109 193.87 109 193.094Z" fill="#19AEF8"/>
<path d="M60 34.2966C60 33.521 59.3254 32.8872 58.5 32.8872C57.6746 32.8872 57 33.521 57 34.2966C57 35.0722 57.6746 35.7061 58.5 35.7061C59.3254 35.7061 60 35.0806 60 34.2966Z" fill="#19AEF8"/>
<path d="M128 70.0027C128 69.227 127.325 68.5932 126.5 68.5932C125.675 68.5932 125 69.227 125 70.0027C125 70.7783 125.675 71.4121 126.5 71.4121C127.325 71.4121 128 70.7783 128 70.0027Z" fill="#00E407"/>
<path d="M141.262 37.9969L138 37.5853C138 37.5853 142.192 38.158 141.697 45.6303L144.959 46.042C145.454 38.5607 141.262 37.9969 141.262 37.9969Z" fill="#FB0835"/>
<path d="M210 34.1927L207.246 32.8869C207.246 32.8869 205.248 35.2645 205 38.1586L207.754 39.4644C208.002 36.5703 210 34.1927 210 34.1927Z" fill="#FFC007"/>
<path d="M53.5953 85.32C50.3924 81.3304 51.2642 77.5206 51.3874 77.0497L50.2124 81.3047C50.2124 81.3047 48.99 85.3628 52.4108 89.6264C55.8317 93.89 62.8155 92.9311 62.8155 92.9311L64 88.6247C64 88.6247 57.0162 89.5836 53.5953 85.32Z" fill="#19AEF8"/>
<path d="M209 103.515L204.822 102.42C204.822 102.42 203.77 107.542 202 110.721L206.178 111.816C207.948 108.637 209 103.515 209 103.515Z" fill="#FB0835"/>
<path d="M3.5652 10.3361L0.257384 10.375C0.257384 10.375 3.65098 12.6025 8.16295e-07 19.7324L3.30781 19.6935C6.9588 12.5636 3.5652 10.3361 3.5652 10.3361Z" fill="#FFC007"/>
<path d="M163 100.86L157.356 98.6615C157.356 98.6615 153.912 103.756 154.002 109.618L159.646 111.816C159.566 105.954 163 100.86 163 100.86Z" fill="#00E407"/>
<path d="M70.2723 154.1L68 154.241C68 154.241 70.9202 154.09 71.7277 159.737L74 159.596C73.1925 153.95 70.2723 154.1 70.2723 154.1Z" fill="#FF68E3"/>
<path d="M65.2359 48.8609C64.1637 49.3 63.8421 49.8357 63.3645 51.1178C62.8869 52.3999 62 52.8741 62 52.8741L63.7641 53.5591C63.7641 53.5591 64.6511 53.0849 65.1287 51.8028C65.6062 50.5206 65.9181 49.985 67 49.5459L65.2359 48.8609Z" fill="#00E407"/>
<path d="M19.5647 44.1627C17.1099 45.5356 16.5148 46.9701 15.7523 50.3231C14.9806 53.6761 13 55.1018 13 55.1018L17.4353 56.3779C17.4353 56.3779 19.4159 54.9522 20.1877 51.5992C20.9594 48.2462 21.5545 46.8117 24 45.4388L19.5647 44.1627Z" fill="#FB0835"/>
<path d="M123.013 123.092C120.947 123.585 120.216 124.414 118.977 126.449C117.737 128.485 116 129.084 116 129.084L118.987 130.609C118.987 130.609 120.725 130.01 121.964 127.974C123.203 125.938 123.924 125.11 126 124.616L123.013 123.092Z" fill="#FF68E3"/>
<path d="M216 62.7066L209.66 59.197C209.66 59.197 204.809 65.1801 204 72.6007L210.34 76.1104C211.149 68.6897 216 62.7066 216 62.7066Z" fill="#FF68E3"/>
<path d="M47.024 98.6611L45 102.835C45 102.835 46.1594 106.553 51.976 108.997L54 104.823C48.1834 102.379 47.024 98.6611 47.024 98.6611Z" fill="#FFC007"/>
<path d="M143.916 1.55594L138.269 -0.000121514C138.269 -0.000121514 142.906 5.13399 133 14.4176L138.647 15.9736C148.553 6.69004 143.916 1.55594 143.916 1.55594Z" fill="#FFC007"/>
<path d="M190.252 46.0421C188.858 46.195 188.289 46.6878 187.238 47.9451C186.198 49.2025 185 49.4574 185 49.4574L186.748 50.7402C186.748 50.7402 187.945 50.4854 188.986 49.228C190.027 47.9706 190.596 47.4779 192 47.3249L190.252 46.0421Z" fill="#FF68E3"/>
<path d="M34.8669 62.0191L32 62.2974C32 62.2974 35.6891 61.9685 37.1331 67.6533L40 67.375C38.556 61.6901 34.8669 62.0191 34.8669 62.0191Z" fill="#FF68E3"/>
<path d="M82 99.2998L78.6276 98.6612C78.6276 98.6612 77.4558 102.079 78.3145 105.54L81.6869 106.178C80.8282 102.717 82 99.2998 82 99.2998Z" fill="#FFC007"/>
<path d="M41.5748 17.853L38 24.9262C38 24.9262 39.7824 31.3279 49.4252 35.7061L53 28.6329C43.3571 24.2547 41.5748 17.853 41.5748 17.853Z" fill="#FFC007"/>
<path d="M20.2575 6.57718C18.7137 7.38934 18.3205 8.27371 17.7836 10.3312C17.2466 12.3977 16 13.246 16 13.246L18.7425 14.0942C18.7425 14.0942 19.9986 13.246 20.526 11.1795C21.063 9.11294 21.4562 8.23761 23 7.42544L20.2575 6.57718Z" fill="#FF68E3"/>
<path d="M146.316 72.3516C145.093 72.6112 144.633 73.1123 143.84 74.383C143.038 75.6538 142 75.9849 142 75.9849L143.684 77.0498C143.684 77.0498 144.721 76.7187 145.524 75.4479C146.326 74.1772 146.777 73.6761 148 73.4166L146.316 72.3516Z" fill="#FF68E3"/>
<path d="M92.542 170.073L89 170.234C89 170.234 89.7411 174.048 89.3379 176.651L92.8799 176.49C93.2831 173.879 92.542 170.073 92.542 170.073Z" fill="#FB0835"/>
<path d="M34.1514 32.8871L32 33.5941C32 33.5941 33.6573 36.1713 32.3397 38.5249L34.4911 37.8179C35.8087 35.4644 34.1514 32.8871 34.1514 32.8871Z" fill="#19AEF8"/>
<path d="M25.036 96.9662L17.2509 96.782C17.2509 96.782 15.9652 104.018 19.2149 110.692L27 110.876C23.7503 104.211 25.036 96.9662 25.036 96.9662Z" fill="#00E407"/>
<path d="M32.368 132.495L31 132.77C31 132.77 32.7576 132.437 33.632 136.247L35 135.972C34.1255 132.162 32.368 132.495 32.368 132.495Z" fill="#00E407"/>
<path d="M170.625 188.466L169 187.927C169 187.927 171.083 188.64 170.12 193.026L171.746 193.564C172.709 189.179 170.625 188.466 170.625 188.466Z" fill="#00E407"/>
<path d="M17.4367 79.887L13 80.5717C13 80.5717 18.7088 79.7429 21.5633 89.2651L26 88.5805C23.1559 79.0582 17.4367 79.887 17.4367 79.887Z" fill="#FB0835"/>
<path d="M38.2921 187.927L36.0411 187.938C36.0411 187.938 35.7438 189.91 36.749 191.685L39 191.674C37.9948 189.898 38.2921 187.927 38.2921 187.927Z" fill="#FF68E3"/>
<path d="M165.069 10.3358L163 12.9867C163 12.9867 162.938 15.9082 165.931 18.7925L168 16.1416C165.007 13.2574 165.069 10.3358 165.069 10.3358Z" fill="#FFC007"/>
<path d="M103 90.8155L99.8554 90.2045C99.8554 90.2045 98.5542 92.6649 99.1615 95.2313L102.306 95.8423C101.699 93.2759 103 90.8155 103 90.8155Z" fill="#FB0835"/>
<path d="M173.507 47.5283L171 46.9815C171 46.9815 174.227 47.7106 173.338 53.9517L175.845 54.4985C176.734 48.2575 173.507 47.5283 173.507 47.5283Z" fill="#FFC007"/>
<path d="M209 13.4833L201.72 12.2151C201.72 12.2151 200.596 20.0698 198 25.0413L205.28 26.3096C207.877 21.338 209 13.4833 209 13.4833Z" fill="#FB0835"/>
<path d="M201.096 79.8685L198.029 82.9943C198.029 82.9943 197.505 86.8273 200.933 91.144L204 88.0181C200.572 83.7014 201.096 79.8685 201.096 79.8685Z" fill="#FF68E3"/>
<path d="M18.4579 143.764L13 145.351C13 145.351 15.9435 152.023 16.5421 156.918L22 155.331C21.4013 150.436 18.4579 143.764 18.4579 143.764Z" fill="#19AEF8"/>
<path d="M185.208 23.4908C183.797 23.6701 183.245 24.1633 182.217 25.4275C181.198 26.6916 180 26.9606 180 26.9606L181.792 28.189C181.792 28.189 182.991 27.92 184.009 26.6558C185.027 25.3916 185.589 24.8985 187 24.7191L185.208 23.4908Z" fill="#00E407"/>
<path d="M119.847 3.7582L116 3.77472C116.367 7.50295 120.153 9.396 120.153 9.396L124 9.37946C124 9.37119 120.214 7.47816 119.847 3.7582Z" fill="#19AEF8"/>
<path d="M152 136.081L150.094 135.307C150.094 135.307 148.952 137.134 149.002 139.232L150.908 140.005C150.858 137.908 152 136.081 152 136.081Z" fill="#FFC007"/>
<path d="M176.626 134.918L173.423 133.428C173.423 133.428 175.704 137.134 169 142.274L172.203 143.764C178.907 138.624 176.626 134.918 176.626 134.918Z" fill="#19AEF8"/>
<path d="M99.2105 10.336L97 13.0129C97 13.0129 97.4242 15.665 101.789 17.853L104 15.1761C99.6348 12.9881 99.2105 10.336 99.2105 10.336Z" fill="#19AEF8"/>
<path d="M73.1132 11.2755L72 13.0353C72 13.0353 72.3491 14.7075 74.8868 15.9736L76 14.2138C73.4623 12.9477 73.1132 11.2755 73.1132 11.2755Z" fill="#19AEF8"/>
<path d="M216.636 173.624C218.008 174.285 218.882 175.786 218.843 177.457C218.813 178.708 218.356 179.852 217.908 180.951L217.819 181.184C217.561 181.818 217.312 182.488 217.193 183.141C217.69 182.953 218.187 182.846 218.693 182.828C220.134 182.765 221.734 183.596 221.973 185.062C222.102 185.848 221.764 186.644 221.039 187.224C220.214 187.886 219.091 188.145 218.097 187.903C217.123 187.671 216.388 187.099 215.901 186.393C214.47 188.1 213.903 190.414 214.5 192.479C215.195 194.9 217.471 196.947 220.164 197.572L219.667 199.306C216.239 198.51 213.456 196.008 212.572 192.925C211.717 189.923 212.731 186.626 215.156 184.445L215.156 184.436C215.007 183.069 215.464 181.782 215.951 180.585L216.04 180.335C216.448 179.325 216.835 178.378 216.855 177.422C216.875 176.609 216.517 175.599 215.692 175.206L216.636 173.624ZM218.843 186.188C219.141 186.188 219.469 186.072 219.717 185.875C219.846 185.777 220.055 185.562 220.005 185.312C219.936 184.919 219.349 184.615 218.763 184.597C218.326 184.615 217.859 184.776 217.372 185.071C217.62 185.58 218.048 186.018 218.614 186.161C218.684 186.179 218.763 186.188 218.843 186.188Z" fill="#00E407"/>
<path d="M172.83 164.098L174.42 165.18C172.154 167.878 171.528 171.676 172.84 174.857C173.367 176.135 174.162 177.297 174.996 178.53C175.871 179.808 176.765 181.13 177.362 182.604C178.167 184.615 178.077 186.947 177.123 188.699C176.447 189.95 175.364 190.817 174.013 191.21L173.396 189.512C174.241 189.271 174.887 188.734 175.334 187.921C176.05 186.617 176.109 184.767 175.483 183.221C174.957 181.916 174.152 180.728 173.297 179.477C172.442 178.226 171.558 176.93 170.972 175.492C169.431 171.738 170.167 167.271 172.83 164.098Z" fill="#FB0835"/>
</svg>
